<svg width="163" height="29" viewBox="0 0 163 29" fill="none" xmlns="http://www.w3.org/2000/svg">
<path d="M147.13 24.36V8.9784H151.439V12.5976H151.527V24.36H147.13ZM157.536 24.36V14.8294C157.536 13.985 157.321 13.3516 156.891 12.9294C156.48 12.5071 155.875 12.296 155.073 12.296C154.39 12.296 153.774 12.4569 153.227 12.7786C152.699 13.1003 152.279 13.5426 151.967 14.1056C151.674 14.6686 151.527 15.3321 151.527 16.0962L151.146 12.3865C151.634 11.2605 152.348 10.3658 153.286 9.70224C154.243 9.01861 155.415 8.6768 156.803 8.6768C158.464 8.6768 159.734 9.15936 160.613 10.1245C161.492 11.0695 161.932 12.3463 161.932 13.9548V24.36H157.536Z" fill="#FDFDFC"/>
<path d="M137.414 24.6616C135.772 24.6616 134.326 24.3298 133.076 23.6663C131.845 22.9827 130.877 22.0377 130.174 20.8313C129.49 19.6048 129.148 18.1973 129.148 16.6089C129.148 15.0205 129.49 13.6331 130.174 12.4468C130.877 11.2605 131.845 10.3356 133.076 9.67208C134.326 9.00856 135.772 8.6768 137.414 8.6768C139.075 8.6768 140.521 9.00856 141.752 9.67208C143.002 10.3356 143.969 11.2605 144.653 12.4468C145.337 13.6331 145.679 15.0205 145.679 16.6089C145.679 18.1973 145.327 19.6048 144.624 20.8313C143.94 22.0377 142.973 22.9827 141.722 23.6663C140.491 24.3298 139.055 24.6616 137.414 24.6616ZM137.414 21.1027C138.098 21.1027 138.713 20.9218 139.26 20.5598C139.827 20.1979 140.276 19.6852 140.608 19.0217C140.941 18.3381 141.107 17.5237 141.107 16.5787C141.107 15.1914 140.745 14.1257 140.022 13.3818C139.319 12.6177 138.449 12.2357 137.414 12.2357C136.378 12.2357 135.499 12.6177 134.776 13.3818C134.072 14.1458 133.721 15.2115 133.721 16.5787C133.721 17.5237 133.887 18.3381 134.219 19.0217C134.551 19.6852 134.991 20.1979 135.538 20.5598C136.104 20.9218 136.73 21.1027 137.414 21.1027Z" fill="#FDFDFC"/>
<path d="M121.118 24.6616C119.457 24.6616 118.011 24.3298 116.78 23.6663C115.549 22.9827 114.591 22.0377 113.907 20.8313C113.243 19.6249 112.911 18.2375 112.911 16.6692C112.911 15.0808 113.243 13.6934 113.907 12.5071C114.591 11.3007 115.539 10.3658 116.75 9.70224C117.962 9.01861 119.369 8.6768 120.971 8.6768C122.515 8.6768 123.853 8.99851 124.987 9.64192C126.12 10.2853 126.999 11.1801 127.625 12.3262C128.25 13.4722 128.562 14.8194 128.562 16.3676C128.562 16.6893 128.553 16.9909 128.533 17.2724C128.514 17.5338 128.484 17.7851 128.445 18.0264H115.49V15.0406H124.899L124.137 15.5834C124.137 14.3368 123.843 13.422 123.257 12.8389C122.691 12.2357 121.909 11.9341 120.912 11.9341C119.76 11.9341 118.861 12.3362 118.216 13.1405C117.591 13.9447 117.278 15.1511 117.278 16.7597C117.278 18.328 117.591 19.4942 118.216 20.2582C118.861 21.0223 119.818 21.4043 121.088 21.4043C121.792 21.4043 122.398 21.2837 122.906 21.0424C123.414 20.8011 123.795 20.409 124.049 19.8662H128.181C127.693 21.3541 126.853 22.5303 125.661 23.3949C124.488 24.2394 122.974 24.6616 121.118 24.6616Z" fill="#FDFDFC"/>
<path d="M103.513 24.36V8.9784H107.822V12.5976H107.91V24.36H103.513ZM107.91 16.3374L107.529 12.6881C107.88 11.3811 108.457 10.3859 109.258 9.70224C110.059 9.01861 111.056 8.6768 112.248 8.6768C112.619 8.6768 112.892 8.71701 113.068 8.79744V13.0198C112.971 12.9796 112.834 12.9595 112.658 12.9595C112.482 12.9394 112.267 12.9294 112.013 12.9294C110.606 12.9294 109.571 13.1907 108.906 13.7135C108.242 14.2162 107.91 15.0908 107.91 16.3374Z" fill="#FDFDFC"/>
<path d="M91.3106 24.6616C90.2554 24.6616 89.3468 24.4304 88.5847 23.9679C87.8422 23.4854 87.2756 22.852 86.8848 22.0678C86.494 21.2636 86.2986 20.3688 86.2986 19.3836V8.9784H90.6951V18.509C90.6951 19.3534 90.9002 19.9868 91.3106 20.409C91.7209 20.8313 92.2974 21.0424 93.0399 21.0424C93.7042 21.0424 94.2905 20.8815 94.7985 20.5598C95.3065 20.2381 95.7071 19.7958 96.0002 19.2328C96.3129 18.6497 96.4692 17.9862 96.4692 17.2422L96.8502 20.9519C96.3617 22.0578 95.6485 22.9525 94.7106 23.6362C93.7727 24.3198 92.6393 24.6616 91.3106 24.6616ZM96.5571 24.36V20.7408H96.4692V8.9784H100.866V24.36H96.5571Z" fill="#FDFDFC"/>
<path d="M79.53 24.36V20.9519L79.8231 21.0122C79.6277 22.1181 79.0415 23.0028 78.0645 23.6663C77.107 24.3298 75.9541 24.6616 74.6059 24.6616C73.2381 24.6616 72.0461 24.3399 71.03 23.6965C70.0335 23.033 69.2616 22.1081 68.7145 20.9218C68.1674 19.7355 67.8938 18.3381 67.8938 16.7295C67.8938 15.1009 68.1772 13.6834 68.7438 12.477C69.3105 11.2706 70.1019 10.3356 71.118 9.67208C72.1536 9.00856 73.3553 8.6768 74.7231 8.6768C76.1495 8.6768 77.3024 9.01861 78.1817 9.70224C79.0806 10.3859 79.6081 11.3208 79.7644 12.5071L79.442 12.5373V2.6448H83.8386V24.36H79.53ZM76.0127 21.0424C77.0484 21.0424 77.8886 20.6704 78.5334 19.9265C79.1782 19.1624 79.5007 18.0767 79.5007 16.6692C79.5007 15.2617 79.1685 14.186 78.5041 13.4421C77.8593 12.678 77.0093 12.296 75.9541 12.296C74.938 12.296 74.0978 12.678 73.4335 13.4421C72.7886 14.2061 72.4662 15.2919 72.4662 16.6994C72.4662 18.1068 72.7886 19.1825 73.4335 19.9265C74.0978 20.6704 74.9576 21.0424 76.0127 21.0424Z" fill="#FDFDFC"/>
<path d="M59.8033 24.6616C58.1424 24.6616 56.6964 24.3298 55.4654 23.6663C54.2344 22.9827 53.2769 22.0377 52.593 20.8313C51.9286 19.6249 51.5965 18.2375 51.5965 16.6692C51.5965 15.0808 51.9286 13.6934 52.593 12.5071C53.2769 11.3007 54.2246 10.3658 55.4361 9.70224C56.6476 9.01861 58.0545 8.6768 59.6568 8.6768C61.2004 8.6768 62.5389 8.99851 63.6723 9.64192C64.8056 10.2853 65.6849 11.1801 66.3102 12.3262C66.9355 13.4722 67.2481 14.8194 67.2481 16.3676C67.2481 16.6893 67.2383 16.9909 67.2188 17.2724C67.1992 17.5338 67.1699 17.7851 67.1309 18.0264H54.1758V15.0406H63.5843L62.8223 15.5834C62.8223 14.3368 62.5292 13.422 61.943 12.8389C61.3763 12.2357 60.5947 11.9341 59.5981 11.9341C58.4453 11.9341 57.5464 12.3362 56.9016 13.1405C56.2763 13.9447 55.9637 15.1511 55.9637 16.7597C55.9637 18.328 56.2763 19.4942 56.9016 20.2582C57.5464 21.0223 58.5039 21.4043 59.774 21.4043C60.4774 21.4043 61.0832 21.2837 61.5912 21.0424C62.0993 20.8011 62.4803 20.409 62.7343 19.8662H66.8671C66.3786 21.3541 65.5383 22.5303 64.3464 23.3949C63.174 24.2394 61.6596 24.6616 59.8033 24.6616Z" fill="#FDFDFC"/>
<path d="M27.1649 24.36V2.6448H34.1993L40.0613 23.5758H37.5113L43.3734 2.6448H50.4371V24.36H45.982V3.94168H46.744L41.0286 24.36H36.3682L30.7114 4.12264H31.4441V24.36H27.1649Z" fill="#FDFDFC"/>
<path d="M16.6808 25.52V22.0898H21.1901V20.3906H14.9465V23.8457H13.3856V20.3906H7.14202V27.3008H2.45933V29H162.104C162.104 29 162.104 28.42 162.104 26.68C110.812 26.68 13.2989 26.68 13.2989 26.68V25.52H16.6808Z" fill="#FDFDFC"/>
<path d="M5.85168 6.68155L7.27293 8.89122C7.70337 8.64721 8.18486 8.49609 8.70292 8.49609C10.4246 8.49609 11.8247 10.0202 11.8247 11.8945C11.8247 12.883 11.4288 13.7661 10.8082 14.3877L12.1189 16.4255L18.5119 11.5519L12.2454 1.80955L5.85168 6.68155Z" fill="#FDFDFC"/>
<path d="M7.14202 11.8945C7.14202 12.8313 7.84245 13.5938 8.70292 13.5938C9.56339 13.5938 10.2638 12.8313 10.2638 11.8945C10.2638 10.9578 9.56339 10.1953 8.70292 10.1953C7.84245 10.1953 7.14202 10.9578 7.14202 11.8945Z" fill="#FDFDFC"/>
<path d="M0.898438 17.8418C0.898438 21.1663 2.85929 24.0234 5.58113 25.0768V21.2211C4.6386 20.4456 4.02023 19.2271 4.02023 17.8419C4.02023 16.1393 4.94605 14.6815 6.27442 14.0039C5.84731 13.4224 5.58113 12.6954 5.58113 11.8945C5.58113 11.4291 5.66822 10.9856 5.82447 10.5813C2.97724 11.5572 0.898438 14.4199 0.898438 17.8418Z" fill="#FDFDFC"/>
<path d="M15.1881 18.2351L19.0233 15.3104L18.128 13.9188L14.2924 16.8427L15.1881 18.2351Z" fill="#FDFDFC"/>
<path d="M5.3395 2.9247L6.23457 4.31556L10.0711 1.39223L9.17545 0L5.3395 2.9247Z" fill="#FDFDFC"/>
</svg>
